<svg width="134" height="33" viewBox="0 0 134 33" fill="none" xmlns="http://www.w3.org/2000/svg">
<path d="M11.1328 31.6875C10.875 31.6875 10.6172 31.6875 10.3594 31.6875C10.1016 31.6875 9.84375 31.6758 9.58594 31.6523C9.46875 31.1133 9.32812 30.5625 9.16406 30C9 29.4609 8.82422 28.9219 8.63672 28.3828C9.10547 28.4062 9.5625 28.4297 10.0078 28.4531C10.4531 28.4766 10.8984 28.4883 11.3438 28.4883C12.1875 28.4883 13.1953 28.4531 14.3672 28.3828C15.5391 28.3125 16.7344 28.1719 17.9531 27.9609C19.1953 27.7266 20.3438 27.375 21.3984 26.9062C22.4766 26.4375 23.3438 25.8164 24 25.043C24.6797 24.2461 25.0195 23.2617 25.0195 22.0898C25.0195 20.918 24.6797 20.0039 24 19.3477C23.3438 18.6914 22.5117 18.2227 21.5039 17.9414C20.5195 17.6602 19.5469 17.5195 18.5859 17.5195C17.25 17.5195 15.8555 17.7305 14.4023 18.1523C12.9492 18.5508 11.5547 19.1016 10.2188 19.8047C8.88281 20.5078 7.69922 21.293 6.66797 22.1602L4.45312 20.8242C4.96875 19.5586 5.41406 18.2109 5.78906 16.7812C6.16406 15.3281 6.50391 13.875 6.80859 12.4219C7.11328 10.9453 7.39453 9.53906 7.65234 8.20312H0.128906V5.07422H8.21484C8.33203 4.37109 8.4375 3.66797 8.53125 2.96484C8.64844 2.23828 8.75391 1.52344 8.84766 0.820312L12.0469 1.10156C11.9531 1.75781 11.8477 2.41406 11.7305 3.07031C11.6133 3.72656 11.4961 4.39453 11.3789 5.07422H27.9375V8.20312H10.8164C10.5117 9.77344 10.1719 11.332 9.79688 12.8789C9.44531 14.4258 9.07031 15.9727 8.67188 17.5195C10.125 16.4883 11.6719 15.7383 13.3125 15.2695C14.9766 14.7773 16.6992 14.5312 18.4805 14.5312C19.6992 14.5312 20.8945 14.6719 22.0664 14.9531C23.2617 15.2109 24.3281 15.6445 25.2656 16.2539C26.2266 16.8633 26.9883 17.6602 27.5508 18.6445C28.1367 19.6289 28.4297 20.8242 28.4297 22.2305C28.4297 23.9414 28.043 25.3711 27.2695 26.5195C26.4961 27.668 25.4648 28.5938 24.1758 29.2969C22.9102 29.9766 21.5039 30.4805 19.957 30.8086C18.4336 31.1602 16.8984 31.3945 15.3516 31.5117C13.8047 31.6289 12.3984 31.6875 11.1328 31.6875ZM56.0203 5.60156C53.6297 5.0625 51.2039 4.67578 48.743 4.44141C46.282 4.18359 43.8328 3.99609 41.3953 3.87891L42.5906 0.925781C45.0984 0.949219 47.6063 1.07813 50.1141 1.3125C52.6453 1.52344 55.118 1.93359 57.532 2.54297L56.0203 5.60156ZM43.7156 31.6172C43.4813 31.0547 43.2352 30.5039 42.9773 29.9648C42.743 29.4023 42.4852 28.8633 42.2039 28.3477C43.0242 28.3477 44.0086 28.3242 45.157 28.2773C46.3055 28.2305 47.5125 28.1367 48.7781 27.9961C50.0438 27.832 51.2859 27.5977 52.5047 27.293C53.7469 26.9648 54.8602 26.5312 55.8445 25.9922C56.8523 25.4297 57.6492 24.7266 58.2352 23.8828C58.8445 23.0156 59.1492 21.9844 59.1492 20.7891C59.1492 19.5 58.8211 18.5273 58.1648 17.8711C57.532 17.2148 56.7117 16.7695 55.7039 16.5352C54.7195 16.2773 53.6883 16.1484 52.6102 16.1484C50.0789 16.1484 47.7586 16.6641 45.6492 17.6953C43.5398 18.7031 41.618 20.1094 39.8836 21.9141L37.3172 21.2461L38.3367 6.72656H41.5359L40.8328 17.3438C42.5906 15.9609 44.4773 14.918 46.493 14.2148C48.532 13.4883 50.6648 13.125 52.8914 13.125C54.6727 13.125 56.3016 13.3594 57.7781 13.8281C59.2781 14.2734 60.4734 15.0586 61.3641 16.1836C62.2781 17.3086 62.7352 18.8789 62.7352 20.8945C62.7352 22.4648 62.4305 23.8242 61.8211 24.9727C61.2352 26.1211 60.4148 27.0938 59.3602 27.8906C58.3289 28.6641 57.157 29.2969 55.8445 29.7891C54.5555 30.2812 53.1961 30.6562 51.7664 30.9141C50.3367 31.1719 48.9305 31.3477 47.5477 31.4414C46.1648 31.5586 44.8875 31.6172 43.7156 31.6172ZM77.6695 31.6523C77.5055 31.0898 77.3297 30.5273 77.1422 29.9648C76.9781 29.4023 76.8023 28.8516 76.6148 28.3125C77.482 28.3359 78.4898 28.3594 79.6383 28.3828C80.7867 28.3828 81.9938 28.3359 83.2594 28.2422C84.525 28.125 85.7555 27.9258 86.9508 27.6445C88.1695 27.3398 89.2594 26.918 90.2203 26.3789C91.2047 25.8398 91.9898 25.1367 92.5758 24.2695C93.1617 23.4023 93.4547 22.3359 93.4547 21.0703C93.4547 19.9219 93.232 18.9844 92.7867 18.2578C92.3414 17.5312 91.732 16.9688 90.9586 16.5703C90.2086 16.1484 89.3648 15.8672 88.4273 15.7266C87.5133 15.5625 86.5758 15.4805 85.6148 15.4805C83.8336 15.4805 82.2984 15.6445 81.0094 15.9727C79.7203 16.3008 78.5484 16.7695 77.4938 17.3789C76.4391 17.9883 75.3727 18.7266 74.2945 19.5938C73.2398 20.4609 72.0328 21.4453 70.6734 22.5469L68.5641 20.2266C71.4234 17.6719 74.3414 15.1758 77.318 12.7383C80.318 10.3008 83.2125 7.76953 86.0016 5.14453H73.1695V2.12109H89.7633L91.4859 4.125C89.5875 5.78906 87.6891 7.45312 85.7906 9.11719C83.8922 10.7578 81.9703 12.3984 80.025 14.0391C80.9859 13.6406 81.982 13.3008 83.0133 13.0195C84.068 12.7383 85.1227 12.5977 86.1773 12.5977C87.5602 12.5977 88.8844 12.75 90.15 13.0547C91.4391 13.3594 92.5875 13.8516 93.5953 14.5312C94.6031 15.2109 95.4 16.1016 95.9859 17.2031C96.5953 18.2812 96.9 19.5938 96.9 21.1406C96.9 22.8281 96.5953 24.2578 95.9859 25.4297C95.4 26.6016 94.5797 27.5742 93.525 28.3477C92.4938 29.0977 91.3219 29.6836 90.0094 30.1055C88.6969 30.5508 87.3141 30.8789 85.8609 31.0898C84.4313 31.3008 83.0133 31.4414 81.607 31.5117C80.2008 31.582 78.8883 31.6289 77.6695 31.6523ZM127.198 5.60156V0.539062H129.553V5.60156H127.198ZM131.065 5.60156V0.539062H133.42V5.60156H131.065ZM123.647 32.2852C121.373 29.6367 118.889 27.2344 116.194 25.0781C113.522 22.9219 110.756 20.8594 107.897 18.8906C107.358 18.5156 106.807 18.0703 106.245 17.5547C105.705 17.0156 105.436 16.3828 105.436 15.6562C105.436 14.8828 105.741 14.2148 106.35 13.6523C106.959 13.0898 107.557 12.6211 108.143 12.2461C110.721 10.5352 113.299 8.80078 115.877 7.04297C118.479 5.26172 120.916 3.31641 123.19 1.20703L125.897 3.63281C125.381 4.00781 124.854 4.40625 124.315 4.82812C123.799 5.25 123.284 5.66016 122.768 6.05859C120.916 7.53516 118.971 8.92969 116.932 10.2422C114.893 11.5312 112.877 12.832 110.885 14.1445C110.698 14.2617 110.416 14.4609 110.041 14.7422C109.666 15 109.479 15.2812 109.479 15.5859C109.479 15.8906 109.666 16.1719 110.041 16.4297C110.416 16.6875 110.686 16.875 110.85 16.9922C113.662 18.8906 116.37 20.8828 118.971 22.9688C121.596 25.0547 124.045 27.3633 126.319 29.8945L123.647 32.2852Z" fill="white"/>
</svg>
