<svg width="400" height="400" viewBox="0 0 400 400" fill="none" xmlns="http://www.w3.org/2000/svg">
<rect x="0.5" y="0.5" width="399" height="399" fill="white" stroke="white"/>
<path d="M191.281 168.5H208.578C211.531 168.5 214.062 170.469 214.906 173.141L216.453 177.5H227C231.922 177.5 236 181.578 236 186.5V222.5C236 227.562 231.922 231.5 227 231.5H173C167.938 231.5 164 227.562 164 222.5V186.5C164 181.578 167.938 177.5 173 177.5H183.406L184.953 173.141C185.797 170.469 188.328 168.5 191.281 168.5ZM200 218C207.453 218 213.5 211.953 213.5 204.5C213.5 197.047 207.453 191 200 191C192.406 191 186.5 197.047 186.5 204.5C186.5 211.953 192.406 218 200 218Z" fill="#7EC2C2"/>
</svg>
