<svg width="400" height="400" viewBox="0 0 400 400" fill="none" xmlns="http://www.w3.org/2000/svg">
<rect x="0.5" y="0.5" width="399" height="399" fill="white" stroke="white"/>
<path d="M187.875 159H210.938C214.875 159 218.25 161.625 219.375 165.188L221.438 171H235.5C242.062 171 247.5 176.438 247.5 183V231C247.5 237.75 242.062 243 235.5 243H163.5C156.75 243 151.5 237.75 151.5 231V183C151.5 176.438 156.75 171 163.5 171H177.375L179.438 165.188C180.562 161.625 183.938 159 187.875 159ZM199.5 225C209.438 225 217.5 216.938 217.5 207C217.5 197.062 209.438 189 199.5 189C189.375 189 181.5 197.062 181.5 207C181.5 216.938 189.375 225 199.5 225Z" fill="#7EC2C2"/>
</svg>
