
<svg width="400" height="400" viewBox="0 0 400 400" fill="none" xmlns="http://www.w3.org/2000/svg">
<rect x="0.5" y="0.5" width="399" height="399" fill="white" stroke="white"/>
<path d="M199.5 153C225.938 153 247.5 174.562 247.5 201C247.5 227.625 225.938 249 199.5 249C172.875 249 151.5 227.625 151.5 201C151.5 174.562 172.875 153 199.5 153ZM199.5 228C202.688 228 205.5 225.375 205.5 222C205.5 218.625 202.688 216 199.5 216C195.938 216 193.5 218.625 193.5 222C193.5 225.375 196.125 228 199.5 228ZM212.438 201.375C216.562 198.938 219 194.625 219 190.125C219 182.812 213.188 177 205.5 177H195.938C188.812 177 183 182.812 183 190.125C183 192.562 185.062 194.625 187.5 194.625C189.938 194.625 192 192.562 192 190.125C192 187.875 193.688 186 196.125 186H205.688C207.938 186 210 187.875 210 190.125C210 191.625 209.25 192.938 207.938 193.688L197.25 200.062C195.75 201 195 202.5 195 204V207C195 209.438 197.062 211.5 199.5 211.5C201.938 211.5 204 209.438 204 207V206.625L212.438 201.375Z" fill="#7EC2C2"/>
</svg>
